<mxfile host="app.diagrams.net" modified="2024-01-01T07:10:42.236Z" agent="Mozilla/5.0 (Macintosh; Intel Mac OS X 10_15_7) AppleWebKit/537.36 (KHTML, like Gecko) Chrome/120.0.0.0 Safari/537.36 Edg/120.0.0.0" version="22.1.15" etag="Wc0QuN7uzxzWULK_1AgH" type="github">
  <diagram name="Page-1" id="GdwP63lYkTU0q1zteah-">
    <mxGraphModel>
      <root>
        <mxCell id="0" />
        <mxCell id="1" parent="0" />
      </root>
    </mxGraphModel>
  </diagram>
</mxfile>
